# xmcd
#
# Track frame offsets:
#	150
#	21152
#	37881
#	57111
#	73768
#	88488
#	103312
#	119993
#	134955
#	150547
#	166362
#	185854
#	201618
#	215405
#	236997
#	255029
#	270776
#	285517
#	304036
#	313711
#	337380
#
# Disc length: 4790 seconds
#
# Revision: 1
# Processed by: cddbd v1.5.2PL0 Copyright (c) Steve Scherf et al.
# Submitted via: EasyCDDAExtractor 8.2.3.1
#
DISCID=4f12b415
DTITLE=Various Artist - Akella Presents - Country Blues - vol.9  CD2
DYEAR=2010
DGENRE=Blues
TTITLE0=BIG HOUSE - - I Walk Alone
TTITLE1=SHAVER - Manual Labor
TTITLE2=HANK SHIZZOE - (You Can Keep On) Fallin' Forever And Ever
TTITLE3=LYNYRD SKYNYRD - Hillbilly Blues
TTITLE4=JIMMY NAIL - Cowboy  Dreams
TTITLE5=The UNDERDOGS - Bayou Country
TTITLE6=MARIA MULDAUR - You Ain't Goin' Nowhere
TTITLE7=GEORGE THOROGOOD - Living With the Shades Pulled Down
TTITLE8=ALBERT LEE and HOGAN'S HEROES - Gone Too Long
TTITLE9=WILEY HURT - Shotgun Shack
TTITLE10=MARK KNOPFLER - Stretching Out
TTITLE11=J.J.CALE and ERIC CLAPTON - Dead End Road
TTITLE12=CHRIS ISAAK - Back On Your Side
TTITLE13=LOS LOBOS - The Town
TTITLE14=The HOLMES BROTHERS - Ain't It Funny What A Fool Will Do
TTITLE15=NORAH JONES - What Am I To You
TTITLE16=WILLIE NELSON and J.J.CALE - Motormouth
TTITLE17=JOHN HAMMOND - Serve Me Right To Suffer
TTITLE18=J.J.CALE - Precious Memories
TTITLE19=KEB' MO' - A Better Man
TTITLE20=The NOTTING HILLBILLIES - Feel Like Going Home
EXTD=
EXTT0=
EXTT1=
EXTT2=
EXTT3=
EXTT4=
EXTT5=
EXTT6=
EXTT7=
EXTT8=
EXTT9=
EXTT10=
EXTT11=
EXTT12=
EXTT13=
EXTT14=
EXTT15=
EXTT16=
EXTT17=
EXTT18=
EXTT19=
EXTT20=
PLAYORDER=
